<?xml version="1.0" encoding="UTF-8"?><svg id="uuid-e49c7371-4a79-4aaa-98db-fd878c8f1105" xmlns="http://www.w3.org/2000/svg" viewBox="0 0 261.13 40.44"><rect x=".22" width="64.11" height="11.85" rx="2.54" ry="2.54" style="fill:#864ac6;"/><rect x="7.22" y="3.13" width="31.12" height="5.31" rx="1.07" ry="1.07" style="fill:#fff;"/><circle cx="47.83" cy="5.79" r="2.66" style="fill:#fff;"/><circle cx="54.66" cy="5.79" r="2.66" style="fill:#fff;"/><rect x=".11" y="13.62" width="64.11" height="11.85" rx="2.54" ry="2.54" style="fill:#864ac6;"/><rect x="8.41" y="16.86" width="31.12" height="5.31" rx="1.07" ry="1.07" style="fill:#fff;"/><circle cx="50.32" cy="19.41" r="2.66" style="fill:#fff;"/><circle cx="57.15" cy="19.41" r="2.66" style="fill:#fff;"/><rect y="27.24" width="64.11" height="11.85" rx="2.54" ry="2.54" style="fill:#864ac6;"/><rect x="5.06" y="30.38" width="31.12" height="5.31" rx="1.07" ry="1.07" style="fill:#fff;"/><circle cx="43.94" cy="33.03" r="2.66" style="fill:#fff;"/><circle cx="54.45" cy="33.03" r="2.66" style="fill:#fff;"/><path d="m88.09,5.61c6.91,0,10.89,3.4,10.89,9.42,0,6.33-3.98,10-10.89,10h-4.9v7.61h-6.87V5.61h11.77Zm-4.9,14.02h4.56c3.01,0,4.75-1.5,4.75-4.36s-1.74-4.25-4.75-4.25h-4.56v8.61Z" style="fill:#443b66;"/><path d="m109.23,15.34c1.43-2.43,3.79-3.78,6.76-3.82v6.02c-3.86-.35-6.41,1.47-6.76,4.4v10.7h-6.68V11.83h6.68v3.51Z" style="fill:#443b66;"/><path d="m140.05,22.21c0,6.41-4.56,10.66-11.35,10.66s-11.39-4.25-11.39-10.66,4.56-10.62,11.39-10.62,11.35,4.21,11.35,10.62Zm-16.02.08c0,3.24,1.89,5.41,4.67,5.41s4.63-2.16,4.63-5.41-1.89-5.4-4.63-5.4-4.67,2.2-4.67,5.4Z" style="fill:#443b66;"/><path d="m155.28,11.83h7.3l-6.6,10.12,7.06,10.7h-7.68l-3.79-6.53-4.24,6.53h-7.34l7.11-10.66-6.64-10.16h7.64l3.47,5.98,3.71-5.98Z" style="fill:#443b66;"/><path d="m176.8,34.8c-1.55,3.79-4.17,5.64-8.03,5.64-2.32,0-4.21-.7-6.06-2.12l2.78-4.56c.97.77,1.78,1.12,2.74,1.12,1.2,0,2.05-.54,2.59-1.66l.5-1.04-8.65-20.35h6.87l5.1,13.82,4.52-13.82h6.64l-9,22.97Z" style="fill:#443b66;"/><path d="m195.08,5.84c0,2.08-1.47,3.55-3.51,3.55s-3.52-1.47-3.52-3.55,1.47-3.52,3.52-3.52,3.51,1.47,3.51,3.52Zm-6.87,26.8V11.83h6.64v20.81h-6.64Z" style="fill:#443b66;"/><path d="m220.49,32.64h-6.68v-3.44c-1.43,2.47-3.74,3.71-6.76,3.71-4.52,0-7.45-3.09-7.45-7.95v-13.13h6.68v11.24c0,2.47,1.35,3.98,3.47,3.98,2.55-.04,4.05-2.12,4.05-4.94v-10.27h6.68v20.81Z" style="fill:#443b66;"/><path d="m261.13,19.51v13.13h-6.64v-11.28c0-2.47-1.39-3.98-3.59-3.98-2.51.08-4.06,2.12-4.06,4.94v10.31h-6.68v-11.28c0-2.47-1.35-3.98-3.55-3.98-2.55.08-4.13,2.12-4.13,4.94v10.31h-6.64V11.83h6.64v3.44c1.43-2.47,3.82-3.71,6.87-3.75,3.4,0,5.91,1.78,6.95,4.71,1.35-3.09,3.9-4.67,7.34-4.71,4.56,0,7.49,3.13,7.49,7.99Z" style="fill:#443b66;"/></svg>